<?xml version="1.0" encoding="iso-8859-1"?>
<!-- Generator: Adobe Illustrator 19.0.0, SVG Export Plug-In . SVG Version: 6.00 Build 0)  -->
<svg xmlns="http://www.w3.org/2000/svg" xmlns:xlink="http://www.w3.org/1999/xlink" version="1.1" id="Layer_1" x="0px" y="0px" viewBox="0 0 485.449 485.449" style="enable-background:new 0 0 485.449 485.449;" xml:space="preserve" width="512px" height="512px">
<g>
	<path d="M451.92,181.821l29.533-5.276c-11.65-65.209-50.141-123.551-105.601-160.066l-16.498,25.057   C407.973,73.544,441.711,124.677,451.92,181.821z" fill="#007cff"/>
	<path d="M126.095,41.535l-16.498-25.057c-55.46,36.515-93.95,94.857-105.601,160.066l29.533,5.276   C43.738,124.677,77.477,73.544,126.095,41.535z" fill="#007cff"/>
	<path d="M445.225,325.241l-30-30v-75.607c0-78.331-52.922-146.484-127.5-166.558V45c0-24.813-20.187-45-45-45s-45,20.187-45,45   v8.076c-74.578,20.074-127.5,88.227-127.5,166.558v75.607l-30,30v60.208h-25v30h143.852c7.108,39.736,41.899,70,83.648,70   s76.539-30.264,83.648-70h143.852v-30h-25V325.241z M70.225,337.668l30-30v-88.034c0-68.176,48.508-127.015,115.341-139.905   l12.159-2.345V45c0-8.271,6.729-15,15-15s15,6.729,15,15v32.383l12.159,2.345c66.833,12.89,115.341,71.729,115.341,139.905v88.034   l30,30v47.781h-345V337.668z M242.725,455.449c-25.127,0-46.356-16.943-52.904-40h105.808   C289.081,438.506,267.851,455.449,242.725,455.449z" fill="#007cff"/>
</g>
<g>
</g>
<g>
</g>
<g>
</g>
<g>
</g>
<g>
</g>
<g>
</g>
<g>
</g>
<g>
</g>
<g>
</g>
<g>
</g>
<g>
</g>
<g>
</g>
<g>
</g>
<g>
</g>
<g>
</g>
</svg>
