<svg xmlns="http://www.w3.org/2000/svg" viewBox="0 0 12 12"><defs><style>.cls-1{fill:#2d3e50;}</style></defs><title>bell</title><g id="Layer_2" data-name="Layer 2"><g id="Free_Icons" data-name="Free Icons"><path class="cls-1" d="M9.93,5.06C9.93,2,8.29,1,6.75.74c0,0,0,0,0,0A.73.73,0,0,0,6,0a.71.71,0,0,0-.74.69.25.25,0,0,0,0,0C3.72,1,2.07,2,2.07,5.07,2.07,8.62,1.19,9,0,10H12C10.82,9,9.93,8.62,9.93,5.06ZM1.35,9.5a3.61,3.61,0,0,0,.71-1A8.07,8.07,0,0,0,2.6,5.06,3.94,3.94,0,0,1,3.76,1.9,3.47,3.47,0,0,1,6,1.17a3.45,3.45,0,0,1,2.24.73A3.92,3.92,0,0,1,9.4,5.05c0,2.62.47,3.67,1.26,4.45Z"/><path class="cls-1" d="M6,12a1.62,1.62,0,0,0,1.62-1.34H4.39A1.61,1.61,0,0,0,6,12Z"/></g></g></svg>